<svg width="279" height="157" viewBox="0 0 279 157" fill="none" xmlns="http://www.w3.org/2000/svg">
<path d="M135.86 107.276L276.495 146.079C257.449 197.354 181.108 219 115.263 219C33.753 219 -34 179.76 -34 109.5C-34 66.5261 52.1227 0 133.633 0C202.658 0 262.857 20.8515 279 76.0185L135.86 107.276Z" fill="#707F52"/>
<path d="M102.02 66.4763C102.02 66.4763 99.3175 128.272 157.059 128.994C214.801 129.716 215 66.4763 215 66.4763C215 66.4763 186.427 69.3252 174.664 93.8427C174.664 93.8427 164.054 55 158.53 55C152.569 55 138.62 91.9969 138.62 91.9969C138.62 91.9969 125.546 72.2545 102.06 66.4763H102.02Z" fill="white"/>
</svg>
