<svg width="579" height="305" viewBox="0 0 579 305" fill="none" xmlns="http://www.w3.org/2000/svg">
<path d="M1005.37 166.528C1005.37 175.872 1001.59 184.371 995.446 190.513C989.333 196.655 980.834 200.439 971.49 200.439H216.915C205.243 200.439 194.967 194.53 188.884 185.565C185.187 180.151 183.033 173.572 183.033 166.528C183.033 163.035 183.557 159.629 184.547 156.457C186.206 151.159 189.117 146.385 192.959 142.572C199.101 136.43 207.542 132.646 216.915 132.646H971.49C990.207 132.646 1005.37 147.811 1005.37 166.528Z" fill="#707F52"/>
<path d="M899.01 200.439H144.435C125.723 200.439 110.553 215.609 110.553 234.322V234.351C110.553 253.063 125.723 268.233 144.435 268.233H899.01C917.723 268.233 932.892 253.063 932.892 234.351V234.322C932.892 215.609 917.723 200.439 899.01 200.439Z" fill="#707F52"/>
<path d="M788.457 73.8184H33.8821C15.1695 73.8184 0 88.9879 0 107.7V107.73C0 126.442 15.1695 141.612 33.8821 141.612H788.457C807.169 141.612 822.339 126.442 822.339 107.73V107.7C822.339 88.9879 807.169 73.8184 788.457 73.8184Z" fill="#707F52"/>
<path d="M807.261 302.116C807.261 304.823 806.941 307.443 806.329 309.975C804.874 316.175 801.672 321.735 797.335 326.072C791.193 332.214 782.722 335.998 773.35 335.998H326.508C307.791 335.998 292.626 320.832 292.626 302.116C292.626 292.772 296.41 284.272 302.552 278.131C308.665 271.989 317.164 268.205 326.508 268.205H773.35C792.066 268.205 807.261 283.399 807.261 302.116Z" fill="#707F52"/>
<path d="M571.891 39.9361C571.891 49.309 568.107 57.7504 561.965 63.8922C555.852 70.0341 547.353 73.8182 538.009 73.8182H252.078C233.361 73.8182 218.196 58.6527 218.196 39.9361C218.196 36.0938 218.836 32.4261 220.001 28.9914C221.689 24.0429 224.483 19.5894 228.122 15.9508C234.264 9.83808 242.705 6.0249 252.078 6.0249H538.009C556.726 6.0249 571.891 21.2194 571.891 39.9361Z" fill="#707F52"/>
<path d="M378.088 14.5536C378.088 22.5875 371.568 29.1078 363.534 29.1078H221.689C221.107 29.1078 220.554 29.1078 220.001 28.9914C221.689 24.0429 224.483 19.5894 228.122 15.9508C234.264 9.83808 242.705 6.0249 252.078 6.0249H375.294C377.069 8.41178 378.088 11.3808 378.088 14.5536Z" fill="#B9C19F"/>
<path d="M268.524 171.011C268.524 179.045 262.004 185.565 253.97 185.565H188.884C185.187 180.151 183.033 173.573 183.033 166.528C183.033 163.035 183.557 159.63 184.547 156.457H253.97C257.987 156.457 261.626 158.087 264.245 160.736C266.894 163.356 268.524 166.994 268.524 171.011Z" fill="#B9C19F"/>
<path d="M453.799 186.322L556.755 214.761C542.812 252.34 486.924 268.204 438.72 268.204C379.048 268.204 329.448 239.445 329.448 187.952C329.448 156.457 392.496 107.701 452.168 107.701C502.701 107.701 546.771 122.983 558.589 163.414L453.799 186.322Z" fill="#394E3A"/>
<path d="M429.173 156.458C429.173 156.458 427.194 201.285 469.488 201.809C511.782 202.332 511.928 156.458 511.928 156.458C511.928 156.458 490.999 158.524 482.383 176.31C482.383 176.31 474.611 148.133 470.565 148.133C466.199 148.133 455.982 174.971 455.982 174.971C455.982 174.971 446.405 160.649 429.202 156.458H429.173Z" fill="white"/>
</svg>
