<svg width="140" height="173" viewBox="0 0 140 173" fill="none" xmlns="http://www.w3.org/2000/svg">
    <path d="M140 102.454V103.344C139.977 107.291 139.626 111.133 138.959 114.904C138.807 115.783 138.644 116.65 138.457 117.516C138.375 117.915 138.293 118.313 138.199 118.711C137.697 120.901 137.089 123.057 136.375 125.177C136.165 125.833 135.931 126.477 135.697 127.121C134.107 131.49 132.073 135.66 129.664 139.572C129.372 140.04 129.08 140.509 128.776 140.966C116.3 160.245 94.6467 173 70 173C45.3533 173 25.6756 161.381 12.9898 143.554C12.2064 142.477 11.4698 141.364 10.7566 140.239C8.68715 136.96 6.87489 133.481 5.36662 129.862C4.8171 128.538 4.29095 127.191 3.82327 125.821C3.30882 124.31 2.84115 122.775 2.42023 121.218C2.31501 120.819 2.20977 120.421 2.10455 120.023C1.71871 118.442 1.36796 116.849 1.07566 115.232C0.53783 112.152 0.187058 109.001 0.0584457 105.792C0.0467537 105.499 0.0350746 105.206 0.0350746 104.913C0.0116906 104.234 0 103.555 0 102.875C0 101.657 0.0350603 100.439 0.0935203 99.2325C1.98762 62.208 32.5505 32.7617 70 32.7617C107.449 32.7617 137.884 62.0791 139.895 98.9983C139.953 100.146 139.988 101.294 140 102.454Z" fill="#FFC033"/>
    <path d="M91.6653 137.861L71.9058 148.25L71.064 148.695L70.3624 148.32L50.6147 137.861L70.3624 108.555L71.064 107.513L71.9058 108.754L91.6653 137.861Z" fill="#E08C46"/>
    <path d="M21.5367 102.875V117.469L2.10454 120.023C1.7187 118.441 1.36795 116.849 1.07565 115.232C0.53782 112.152 0.187048 109.001 0.0584359 105.792C0.0467439 105.499 0.0350647 105.206 0.0350647 104.913L21.5367 102.875Z" fill="black"/>
    <path d="M91.6653 132.122L71.9058 142.511L71.064 142.956L70.3624 142.581L50.6147 132.122L70.3624 102.816L71.064 101.773L71.9058 103.015L91.6653 132.122Z" fill="#FFEDCA"/>
    <path d="M32.2348 137.323L12.9898 143.554C12.2064 142.477 11.4698 141.364 10.7566 140.239C8.68714 136.96 6.87488 133.481 5.36661 129.862L29.5924 122.975L32.2348 137.323Z" fill="black"/>
    <path d="M140 102.453V103.343C139.977 107.291 139.626 111.133 138.959 114.904C138.807 115.783 138.644 116.649 138.457 117.516L121.445 115.279V100.696L140 102.453Z" fill="black"/>
    <path d="M135.697 127.121C134.107 131.49 132.073 135.66 129.664 139.572C129.372 140.04 129.08 140.509 128.776 140.966L110.758 135.133L113.389 120.784L135.697 127.121Z" fill="black"/>
    <path d="M43.2604 109.75C50.7638 109.75 56.8465 103.657 56.8465 96.1397C56.8465 88.6229 50.7638 82.5293 43.2604 82.5293C35.757 82.5293 29.6743 88.6229 29.6743 96.1397C29.6743 103.657 35.757 109.75 43.2604 109.75Z" fill="#302919"/>
    <path d="M43.2604 101.528C46.2308 101.528 48.6387 99.1156 48.6387 96.1399C48.6387 93.1642 46.2308 90.752 43.2604 90.752C40.29 90.752 37.8821 93.1642 37.8821 96.1399C37.8821 99.1156 40.29 101.528 43.2604 101.528Z" fill="#FFEDCA"/>
    <path d="M97.1722 109.75C104.676 109.75 110.758 103.657 110.758 96.1397C110.758 88.6229 104.676 82.5293 97.1722 82.5293C89.6688 82.5293 83.5861 88.6229 83.5861 96.1397C83.5861 103.657 89.6688 109.75 97.1722 109.75Z" fill="#302919"/>
    <path d="M97.1722 101.528C100.143 101.528 102.551 99.1156 102.551 96.1399C102.551 93.1642 100.143 90.752 97.1722 90.752C94.2018 90.752 91.7939 93.1642 91.7939 96.1399C91.7939 99.1156 94.2018 101.528 97.1722 101.528Z" fill="#FFEDCA"/>
    <path d="M55.6656 74.6113V90.8454L19.8296 81.1706L24.3077 74.6113H55.6656Z" fill="black"/>
    <path d="M84.7553 74.6113V90.8454L120.603 81.1706L116.113 74.6113H84.7553Z" fill="black"/>
    <path d="M40.7115 12.1465C40.7115 12.1465 36.1282 36.3805 56.8465 40.152C56.8465 40.152 59.8396 19.1625 40.7115 12.1465Z" fill="#FFC033"/>
    <path d="M70 0C70 0 45.8443 29.8445 52.8362 52.3099C52.8362 52.3099 75.9629 39.7302 70 0Z" fill="#FFC033"/>
</svg>