<svg width="187" height="230" viewBox="0 0 187 230" fill="none" xmlns="http://www.w3.org/2000/svg">
<path d="M186.26 136.063V137.245C186.229 142.488 185.762 147.59 184.876 152.599C184.673 153.765 184.456 154.916 184.207 156.067C184.098 156.596 183.989 157.125 183.864 157.654C183.196 160.563 182.387 163.425 181.438 166.241C181.158 167.112 180.847 167.967 180.536 168.823C178.42 174.625 175.713 180.163 172.509 185.358C172.12 185.98 171.731 186.603 171.327 187.209C154.729 212.813 125.921 229.753 93.13 229.753C60.3393 229.753 34.1596 214.322 17.282 190.647C16.2398 189.216 15.2598 187.738 14.3109 186.245C11.5576 181.889 9.14655 177.269 7.13991 172.463C6.40881 170.705 5.7088 168.916 5.08659 167.096C4.40215 165.09 3.77994 163.052 3.21995 160.983C3.07995 160.454 2.93995 159.925 2.79995 159.396C2.28662 157.296 1.81998 155.181 1.43109 153.034C0.715544 148.943 0.248867 144.759 0.0777579 140.497C0.0622025 140.108 0.0466642 139.719 0.0466642 139.33C0.0155535 138.428 0 137.525 0 136.623C0 135.005 0.0466452 133.388 0.124422 131.786C2.64439 82.615 43.3062 43.5088 93.13 43.5088C142.954 43.5088 183.444 82.4439 186.12 131.474C186.198 132.999 186.244 134.523 186.26 136.063Z" fill="#FFC033"/>
<path d="M121.954 183.087L95.6655 196.884L94.5456 197.475L93.6122 196.978L67.3392 183.087L93.6122 144.167L94.5456 142.783L95.6655 144.432L121.954 183.087Z" fill="#E08C46"/>
<path d="M28.653 136.623V156.005L2.79995 159.396C2.28662 157.296 1.81997 155.181 1.43109 153.034C0.715541 148.943 0.248864 144.759 0.077755 140.496C0.0621997 140.107 0.0466614 139.719 0.0466614 139.33L28.653 136.623Z" fill="black"/>
<path d="M121.954 175.465L95.6655 189.262L94.5456 189.853L93.6122 189.356L67.3392 175.465L93.6122 136.545L94.5456 135.161L95.6655 136.81L121.954 175.465Z" fill="#FFEDCA"/>
<path d="M42.8861 182.372L17.282 190.647C16.2398 189.216 15.2598 187.738 14.3109 186.245C11.5576 181.89 9.14655 177.27 7.13991 172.463L39.3706 163.316L42.8861 182.372Z" fill="black"/>
<path d="M186.26 136.063V137.246C186.229 142.488 185.762 147.59 184.876 152.599C184.673 153.765 184.456 154.916 184.207 156.067L161.574 153.096V133.73L186.26 136.063Z" fill="black"/>
<path d="M180.536 168.823C178.42 174.625 175.713 180.163 172.509 185.358C172.12 185.98 171.731 186.602 171.327 187.209L147.356 179.463L150.856 160.407L180.536 168.823Z" fill="black"/>
<path d="M57.5549 145.754C67.5376 145.754 75.6302 137.661 75.6302 127.678C75.6302 117.696 67.5376 109.603 57.5549 109.603C47.5721 109.603 39.4795 117.696 39.4795 127.678C39.4795 137.661 47.5721 145.754 57.5549 145.754Z" fill="#302919"/>
<path d="M57.5549 134.834C61.5067 134.834 64.7103 131.63 64.7103 127.678C64.7103 123.727 61.5067 120.523 57.5549 120.523C53.603 120.523 50.3994 123.727 50.3994 127.678C50.3994 131.63 53.603 134.834 57.5549 134.834Z" fill="#FFEDCA"/>
<path d="M129.281 145.754C139.263 145.754 147.356 137.661 147.356 127.678C147.356 117.696 139.263 109.603 129.281 109.603C119.298 109.603 111.205 117.696 111.205 127.678C111.205 137.661 119.298 145.754 129.281 145.754Z" fill="#302919"/>
<path d="M129.281 134.834C133.233 134.834 136.436 131.63 136.436 127.678C136.436 123.727 133.233 120.523 129.281 120.523C125.329 120.523 122.125 123.727 122.125 127.678C122.125 131.63 125.329 134.834 129.281 134.834Z" fill="#FFEDCA"/>
<path d="M74.0591 99.0879V120.648L26.3819 107.799L32.3396 99.0879H74.0591Z" fill="black"/>
<path d="M112.761 99.0879V120.648L160.454 107.799L154.48 99.0879H112.761Z" fill="black"/>
<path d="M54.1638 16.1309C54.1638 16.1309 48.0661 48.3149 75.6302 53.3237C75.6302 53.3237 79.6124 25.4485 54.1638 16.1309Z" fill="#FFC033"/>
<path d="M93.13 0C93.13 0 60.9926 39.6351 70.2947 69.4703C70.2947 69.4703 101.063 52.7638 93.13 0Z" fill="#FFC033"/>
</svg>
