<svg width="384" height="461" viewBox="0 0 384 461" fill="none" xmlns="http://www.w3.org/2000/svg">
<path d="M178.39 367.66H133.16V460.39H178.39V367.66Z" fill="#E08C46"/>
<path d="M265.56 367.66H220.34V460.39H265.56V367.66Z" fill="#E08C46"/>
<path d="M265.57 402.78H220.34V426.6H265.57V402.78Z" fill="#AF6B38"/>
<path d="M178.39 402.78H133.16V426.6H178.39V402.78Z" fill="#AF6B38"/>
<path d="M226.68 101C313.15 101 383.36 171.21 383.36 257.68C383.36 344.15 313.15 414.36 226.68 414.36H70V257.68C70 171.21 140.21 101 226.68 101Z" fill="#FFC033"/>
<path d="M181.42 245.18C196.669 245.18 209.03 232.819 209.03 217.57C209.03 202.321 196.669 189.96 181.42 189.96C166.171 189.96 153.81 202.321 153.81 217.57C153.81 232.819 166.171 245.18 181.42 245.18Z" fill="#302919"/>
<path d="M293.18 245.18C308.429 245.18 320.79 232.819 320.79 217.57C320.79 202.321 308.429 189.96 293.18 189.96C277.931 189.96 265.57 202.321 265.57 217.57C265.57 232.819 277.931 245.18 293.18 245.18Z" fill="#302919"/>
<path d="M271.64 274.92C273.64 276.07 273.64 278.96 271.64 280.12L254.18 290.2L236.72 300.28C234.72 301.43 232.22 299.99 232.22 297.68V277.52V257.36C232.22 255.05 234.72 253.61 236.72 254.76L254.18 264.84L271.64 274.92Z" fill="#E08C46"/>
<path d="M271.64 263.77C273.64 264.92 273.64 267.81 271.64 268.97L254.18 279.05L236.72 289.13C234.72 290.28 232.22 288.84 232.22 286.53V266.37V246.21C232.22 243.9 234.72 242.46 236.72 243.61L254.18 253.69L271.64 263.77Z" fill="#FFEDCA"/>
<path d="M153 157.763L191.631 155.258" stroke="#302919" stroke-width="7" stroke-linecap="round" stroke-linejoin="round"/>
<path d="M322.688 156.488L284 155.104" stroke="#302919" stroke-width="7" stroke-linecap="round" stroke-linejoin="round"/>
<path d="M165.99 211.72C168.122 211.72 169.85 209.992 169.85 207.86C169.85 205.728 168.122 204 165.99 204C163.858 204 162.13 205.728 162.13 207.86C162.13 209.992 163.858 211.72 165.99 211.72Z" fill="#FFEDCA"/>
<path d="M181.42 227.28C186.783 227.28 191.13 222.933 191.13 217.57C191.13 212.207 186.783 207.86 181.42 207.86C176.057 207.86 171.71 212.207 171.71 217.57C171.71 222.933 176.057 227.28 181.42 227.28Z" fill="#FFEDCA"/>
<path d="M293.18 227.28C298.543 227.28 302.89 222.933 302.89 217.57C302.89 212.207 298.543 207.86 293.18 207.86C287.817 207.86 283.47 212.207 283.47 217.57C283.47 222.933 287.817 227.28 293.18 227.28Z" fill="#FFEDCA"/>
<path d="M303.21 206.27C305.342 206.27 307.07 204.542 307.07 202.41C307.07 200.278 305.342 198.55 303.21 198.55C301.078 198.55 299.35 200.278 299.35 202.41C299.35 204.542 301.078 206.27 303.21 206.27Z" fill="#FFEDCA"/>
<path d="M71.2224 30.9121L100.778 66.5875" stroke="#FFEDCA" stroke-width="6" stroke-linecap="round"/>
<path d="M48.1008 131.064L2.99999 120.474" stroke="#FFEDCA" stroke-width="6" stroke-linecap="round"/>
<path d="M194.241 3.49512L184.062 48.6905" stroke="#FFEDCA" stroke-width="6" stroke-linecap="round"/>
</svg>
