<svg width="216" height="176" viewBox="0 0 216 176" fill="none" xmlns="http://www.w3.org/2000/svg">
<path d="M215.263 48.4941L0 48.4941L0 114.989H0.0117736C0.594441 148.401 43.7589 175.374 96.9347 175.374C150.11 175.374 193.275 148.401 193.858 114.989H215.263V48.4941Z" fill="#51BA45"/>
<path d="M20.3169 21.3975H11.7711C5.27008 21.3975 0 26.6675 0 33.1685L0 59.4827C0 65.9837 5.27008 71.2538 11.7711 71.2538H20.3169C26.8178 71.2538 32.0879 65.9837 32.0879 59.4827L32.0879 33.1685C32.0879 26.6675 26.8178 21.3975 20.3169 21.3975Z" fill="#51BA45"/>
<path d="M66.4472 21.3975H57.9014C51.4005 21.3975 46.1304 26.6675 46.1304 33.1685L46.1304 59.4827C46.1304 65.9837 51.4005 71.2538 57.9014 71.2538H66.4472C72.9482 71.2538 78.2183 65.9837 78.2183 59.4827V33.1685C78.2183 26.6675 72.9482 21.3975 66.4472 21.3975Z" fill="#51BA45"/>
<path d="M201.48 37.8647L209.384 37.8647C212.633 37.8647 215.27 40.5015 215.27 43.7503V52.096C215.27 55.3448 212.633 57.9815 209.384 57.9815H193.135C189.886 57.9815 187.249 55.3448 187.249 52.096C187.249 44.2388 193.629 37.8647 201.48 37.8647Z" fill="#51BA45"/>
<path d="M192.291 113.742L189.902 117.885L186.094 124.483L179.891 135.224L173.693 124.483L169.885 117.885L168.261 115.072L167.49 113.742H192.291Z" fill="#FFEDCA"/>
<path d="M169.026 113.742L168.261 115.072L166.631 117.885L162.823 124.483L156.625 135.224L150.422 124.483L146.614 117.885L144.99 115.066L144.224 113.742H169.026Z" fill="#FFEDCA"/>
<path d="M145.755 113.742L144.99 115.066L143.359 117.885L139.551 124.483L133.354 135.224L127.151 124.483L123.343 117.885L121.718 115.066L120.953 113.742H145.755Z" fill="#FFEDCA"/>
<path d="M122.484 113.742L121.719 115.066L120.095 117.885L116.287 124.483L110.083 135.224L103.886 124.483L100.078 117.885L98.4536 115.072L97.6826 113.742H122.484Z" fill="#FFEDCA"/>
<path d="M99.2188 113.742L98.4537 115.072L96.8234 117.885L93.0155 124.483L86.8121 135.224L80.6146 124.483L76.8067 117.885L75.1823 115.072L74.4113 113.742H99.2188Z" fill="#FFEDCA"/>
<path d="M75.9469 113.742L75.1817 115.072L73.5515 117.885L69.7435 124.483L63.546 135.224L57.3427 124.483L53.5348 117.885L51.1452 113.742H75.9469Z" fill="#FFEDCA"/>
<path d="M205.135 42.762C205.135 42.762 197.802 41.5319 197.578 47.9236C197.354 54.3153 215.135 44.3158 205.135 42.762Z" fill="#4C9338"/>
<path d="M192.292 113.742L189.903 117.885L169.886 117.885L168.261 115.072L166.631 117.885H146.614L144.99 115.066L143.36 117.885H123.343L121.719 115.066L120.094 117.885H100.078L98.4531 115.072L96.8228 117.885H76.8062L75.1817 115.072L73.5515 117.885H53.5348L51.1452 113.742L192.292 113.742Z" fill="#E2D2B5"/>
<path d="M215.263 48.4941L0 48.4941L0 114.989L215.263 114.989V48.4941Z" fill="#51BA45"/>
<path d="M19.5749 28.8779L12.5123 28.8779C7.96158 28.8779 4.27252 32.567 4.27252 37.1177L4.27252 55.5453C4.27252 60.0959 7.96158 63.785 12.5123 63.785H19.5749C24.1256 63.785 27.8146 60.0959 27.8146 55.5453L27.8146 37.1177C27.8146 32.567 24.1256 28.8779 19.5749 28.8779Z" fill="#FFC033"/>
<path d="M65.7069 28.8779L58.6443 28.8779C54.0936 28.8779 50.4045 32.567 50.4045 37.1177L50.4045 55.5453C50.4045 60.0959 54.0936 63.785 58.6443 63.785H65.7069C70.2576 63.785 73.9466 60.0959 73.9466 55.5453V37.1177C73.9466 32.567 70.2576 28.8779 65.7069 28.8779Z" fill="#FFC033"/>
<path d="M19.8515 37.4468H12.2356L12.2356 55.2093H19.8515L19.8515 37.4468Z" fill="#302919"/>
<path d="M66.4302 37.4468H58.8143V55.2093H66.4302V37.4468Z" fill="#302919"/>
<path d="M5.53323 5.98291L26.5563 14.77" stroke="#302919" stroke-width="7" stroke-miterlimit="10"/>
<path d="M73.5869 4L53.5054 14.7705" stroke="#302919" stroke-width="7" stroke-miterlimit="10"/>
</svg>
