<svg width="313" height="219" viewBox="0 0 313 219" fill="none" xmlns="http://www.w3.org/2000/svg">
<g opacity="0.5">
<path d="M169.86 107.276L310.495 146.079C291.449 197.354 215.108 219 149.263 219C67.753 219 0 179.76 0 109.5C0 66.5261 86.1227 0 167.633 0C236.658 0 296.857 20.8515 313 76.0185L169.86 107.276Z" fill="#707F52"/>
<path d="M136.02 66.4763C136.02 66.4763 133.318 128.272 191.059 128.994C248.801 129.716 249 66.4763 249 66.4763C249 66.4763 220.427 69.3252 208.664 93.8427C208.664 93.8427 198.054 55 192.53 55C186.569 55 172.62 91.9969 172.62 91.9969C172.62 91.9969 159.546 72.2545 136.06 66.4763H136.02Z" fill="white"/>
</g>
</svg>
