<svg width="665" height="272" viewBox="0 0 665 272" fill="none" xmlns="http://www.w3.org/2000/svg">
<g opacity="0.5">
<path d="M664.61 110.085C664.61 116.261 662.108 121.88 658.048 125.94C654.007 130 648.389 132.502 642.212 132.502H143.394C135.677 132.502 128.885 128.596 124.863 122.669C122.42 119.09 120.996 114.741 120.996 110.085C120.996 107.775 121.342 105.524 121.996 103.427C123.093 99.9246 125.017 96.7689 127.557 94.2482C131.617 90.188 137.198 87.6865 143.394 87.6865H642.212C654.585 87.6865 664.61 97.7118 664.61 110.085Z" fill="#707F52"/>
<path d="M594.299 132.502H95.4803C83.1102 132.502 73.0823 142.53 73.0823 154.9V154.919C73.0823 167.289 83.1102 177.317 95.4803 177.317H594.299C606.669 177.317 616.697 167.289 616.697 154.919V154.9C616.697 142.53 606.669 132.502 594.299 132.502Z" fill="#707F52"/>
<path d="M521.216 48.7979H22.398C10.0279 48.7979 0 58.8258 0 71.1959V71.2151C0 83.5852 10.0279 93.6132 22.398 93.6132H521.216C533.586 93.6132 543.614 83.5852 543.614 71.2151V71.1959C543.614 58.8258 533.586 48.7979 521.216 48.7979Z" fill="#707F52"/>
<path d="M533.647 199.716C533.647 201.506 533.435 203.237 533.031 204.912C532.069 209.01 529.952 212.685 527.085 215.553C523.025 219.613 517.426 222.114 511.23 222.114H215.841C203.468 222.114 193.443 212.089 193.443 199.716C193.443 193.539 195.944 187.921 200.005 183.86C204.045 179.8 209.664 177.299 215.841 177.299H511.23C523.602 177.299 533.647 187.343 533.647 199.716Z" fill="#707F52"/>
<path d="M378.054 26.3997C378.054 32.5957 375.552 38.176 371.492 42.2361C367.451 46.2962 361.832 48.7978 355.656 48.7978H166.638C154.266 48.7978 144.24 38.7725 144.24 26.3997C144.24 23.8597 144.664 21.4352 145.433 19.1646C146.549 15.8934 148.397 12.9493 150.802 10.544C154.862 6.50316 160.442 3.98242 166.638 3.98242H355.656C368.028 3.98242 378.054 14.0269 378.054 26.3997Z" fill="#707F52"/>
<path d="M622.085 227.078H123.266C110.896 227.078 100.868 237.106 100.868 249.476V249.495C100.868 261.866 110.896 271.893 123.266 271.893H622.085C634.455 271.893 644.483 261.866 644.483 249.495V249.476C644.483 237.106 634.455 227.078 622.085 227.078Z" fill="#707F52"/>
<path d="M521.216 0H424.966C412.596 0 402.568 10.0279 402.568 22.398V22.4173C402.568 34.7874 412.596 44.8153 424.966 44.8153H521.216C533.586 44.8153 543.614 34.7874 543.614 22.4173V22.398C543.614 10.0279 533.586 0 521.216 0Z" fill="#707F52"/>
<path d="M249.938 9.62042C249.938 14.9313 245.628 19.2416 240.317 19.2416H146.549C146.165 19.2416 145.799 19.2416 145.433 19.1646C146.549 15.8934 148.397 12.9493 150.802 10.544C154.862 6.50316 160.442 3.98242 166.638 3.98242H248.091C249.265 5.56029 249.938 7.52301 249.938 9.62042Z" fill="#B9C19F"/>
<path d="M177.51 113.049C177.51 118.36 173.2 122.67 167.889 122.67H124.863C122.42 119.091 120.996 114.742 120.996 110.086C120.996 107.776 121.342 105.525 121.996 103.428H167.889C170.545 103.428 172.95 104.505 174.682 106.256C176.433 107.988 177.51 110.393 177.51 113.049Z" fill="#B9C19F"/>
<path d="M533.031 204.911C532.069 209.01 529.952 212.685 527.085 215.552C523.025 219.612 517.426 222.114 511.23 222.114H442.785C442.458 221.883 442.15 221.613 441.861 221.325C440.129 219.593 439.052 217.188 439.052 214.532C439.052 209.202 443.343 204.911 448.673 204.911H533.031Z" fill="#B9C19F"/>
<path d="M299.988 123.17L368.048 141.969C358.83 166.811 321.885 177.298 290.02 177.298C250.573 177.298 217.784 158.287 217.784 124.247C217.784 103.427 259.463 71.1963 298.91 71.1963C332.315 71.1963 361.447 81.2985 369.26 108.026L299.988 123.17Z" fill="#394E3A"/>
<path d="M283.709 103.428C283.709 103.428 282.4 133.061 310.359 133.408C338.318 133.754 338.414 103.428 338.414 103.428C338.414 103.428 324.579 104.794 318.883 116.551C318.883 116.551 313.746 97.9248 311.071 97.9248C308.185 97.9248 301.431 115.666 301.431 115.666C301.431 115.666 295.1 106.199 283.728 103.428H283.709Z" fill="white"/>
<path d="M445.748 160.384C445.748 160.384 444.44 190.017 472.399 190.364C500.358 190.71 500.454 160.384 500.454 160.384C500.454 160.384 486.619 161.75 480.923 173.507C480.923 173.507 475.785 154.881 473.111 154.881C470.224 154.881 463.47 172.622 463.47 172.622C463.47 172.622 457.139 163.155 445.767 160.384H445.748Z" fill="white"/>
</g>
</svg>
