<svg width="346" height="142" viewBox="0 0 346 142" fill="none" xmlns="http://www.w3.org/2000/svg">
<g opacity="0.5">
<path d="M345.39 84.09C345.39 80.88 344.09 77.96 341.98 75.85C339.88 73.74 336.96 72.44 333.75 72.44H74.52C70.51 72.44 66.98 74.47 64.89 77.55C63.62 79.41 62.88 81.67 62.88 84.09C62.88 85.29 63.06 86.46 63.4 87.55C63.97 89.37 64.97 91.01 66.29 92.32C68.4 94.43 71.3 95.73 74.52 95.73H333.75C340.18 95.73 345.39 90.52 345.39 84.09Z" fill="#707F52"/>
<path d="M308.85 72.4399H49.62C43.1914 72.4399 37.98 67.2285 37.98 60.7999V60.7899C37.98 54.3614 43.1914 49.1499 49.62 49.1499H308.85C315.279 49.1499 320.49 54.3614 320.49 60.7899V60.7999C320.49 67.2285 315.279 72.4399 308.85 72.4399Z" fill="#707F52"/>
<path d="M270.87 115.94H11.64C5.2114 115.94 0 110.729 0 104.3V104.29C0 97.8614 5.2114 92.6499 11.64 92.6499H270.87C277.299 92.6499 282.51 97.8614 282.51 104.29V104.3C282.51 110.729 277.299 115.94 270.87 115.94Z" fill="#707F52"/>
<path d="M277.33 37.5097C277.33 36.5797 277.22 35.6797 277.01 34.8097C276.51 32.6797 275.41 30.7697 273.92 29.2797C271.81 27.1697 268.9 25.8697 265.68 25.8697H112.17C105.74 25.8697 100.53 31.0797 100.53 37.5097C100.53 40.7197 101.83 43.6397 103.94 45.7497C106.04 47.8597 108.96 49.1597 112.17 49.1597H265.68C272.11 49.1597 277.33 43.9397 277.33 37.5097Z" fill="#707F52"/>
<path d="M196.47 127.58C196.47 124.36 195.17 121.46 193.06 119.35C190.96 117.24 188.04 115.94 184.83 115.94H86.6C80.17 115.94 74.96 121.15 74.96 127.58C74.96 128.9 75.18 130.16 75.58 131.34C76.16 133.04 77.12 134.57 78.37 135.82C80.48 137.92 83.38 139.23 86.6 139.23H184.83C191.26 139.23 196.47 134.01 196.47 127.58Z" fill="#707F52"/>
<path d="M323.29 23.29H64.06C57.6314 23.29 52.42 18.0786 52.42 11.65V11.64C52.42 5.21144 57.6314 3.05176e-05 64.06 3.05176e-05H323.29C329.719 3.05176e-05 334.93 5.21144 334.93 11.64V11.65C334.93 18.0786 329.719 23.29 323.29 23.29Z" fill="#707F52"/>
<path d="M270.87 141.3H220.85C214.421 141.3 209.21 136.088 209.21 129.66V129.65C209.21 123.221 214.421 118.01 220.85 118.01H270.87C277.299 118.01 282.51 123.221 282.51 129.65V129.66C282.51 136.088 277.299 141.3 270.87 141.3Z" fill="#707F52"/>
<path d="M129.89 136.3C129.89 133.54 127.65 131.3 124.89 131.3H76.16C75.96 131.3 75.77 131.3 75.58 131.34C76.16 133.04 77.12 134.57 78.37 135.82C80.48 137.92 83.38 139.23 86.6 139.23H128.93C129.54 138.41 129.89 137.39 129.89 136.3Z" fill="#B9C19F"/>
<path d="M92.25 82.5498C92.25 79.7898 90.01 77.5498 87.25 77.5498H64.89C63.62 79.4098 62.88 81.6698 62.88 84.0898C62.88 85.2898 63.06 86.4598 63.4 87.5498H87.25C88.63 87.5498 89.88 86.9898 90.78 86.0798C91.69 85.1798 92.25 83.9298 92.25 82.5498Z" fill="#B9C19F"/>
<path d="M277.01 34.8101C276.51 32.6801 275.41 30.7701 273.92 29.2801C271.81 27.1701 268.9 25.8701 265.68 25.8701H230.11C229.94 25.9901 229.78 26.1301 229.63 26.2801C228.73 27.1801 228.17 28.4301 228.17 29.8101C228.17 32.5801 230.4 34.8101 233.17 34.8101H277.01Z" fill="#B9C19F"/>
</g>
</svg>
