<svg width="206" height="176" viewBox="0 0 206 176" fill="none" xmlns="http://www.w3.org/2000/svg">
<path d="M205.981 25.46C205.383 11.629 193.998 0.413315 180.154 0.0164713C165.087 -0.4129 152.746 11.668 152.746 26.6375C152.746 26.6505 152.746 26.657 152.746 26.67C152.746 28.2899 151.477 29.6171 149.857 29.6171H55.8639C54.4132 29.6171 53.2486 28.4331 53.2682 26.9758C53.2942 24.7379 53.0405 22.4544 52.468 20.1514C49.3583 7.62805 37.4465 -0.933356 24.5914 0.0815216C9.08845 1.30458 -1.91906 15.3177 0.279837 30.4628C1.18412 36.6952 4.18321 42.1014 8.4509 46.0893C10.5717 48.067 11.6777 50.9035 11.476 53.7985C11.4305 54.4035 11.411 55.015 11.411 55.6331V82.5338C11.411 133.909 53.06 175.551 104.428 175.551C155.803 175.551 197.446 133.902 197.446 82.5338V55.6331C197.446 54.3645 197.355 53.1154 197.179 51.8923C196.769 49.0624 197.628 46.2194 199.502 44.0596C203.789 39.1153 206.281 32.5771 205.975 25.4535L205.981 25.46Z" fill="#51BA45"/>
<path d="M26.6341 43.3307C35.8536 43.3307 43.3276 35.8568 43.3276 26.6373C43.3276 17.4178 35.8536 9.94385 26.6341 9.94385C17.4146 9.94385 9.94067 17.4178 9.94067 26.6373C9.94067 35.8568 17.4146 43.3307 26.6341 43.3307Z" fill="#FFC033"/>
<path d="M10.1163 16.7422C10.1163 16.7422 13.7595 20.4765 19.0551 18.2971C24.3506 16.1177 21.2344 7.08789 21.2344 7.08789" fill="#51BA45"/>
<path d="M179.373 43.3307C188.593 43.3307 196.067 35.8568 196.067 26.6373C196.067 17.4178 188.593 9.94385 179.373 9.94385C170.154 9.94385 162.68 17.4178 162.68 26.6373C162.68 35.8568 170.154 43.3307 179.373 43.3307Z" fill="#FFC033"/>
<path d="M196.138 16.7422C196.138 16.7422 192.495 20.4765 187.2 18.2971C181.904 16.1177 185.02 7.08789 185.02 7.08789" fill="#51BA45"/>
<path d="M179.373 36.8115C184.993 36.8115 189.548 32.2561 189.548 26.6367C189.548 21.0173 184.993 16.4619 179.373 16.4619C173.754 16.4619 169.198 21.0173 169.198 26.6367C169.198 32.2561 173.754 36.8115 179.373 36.8115Z" fill="#302919"/>
<path d="M26.6341 36.8115C32.2535 36.8115 36.8089 32.2561 36.8089 26.6367C36.8089 21.0173 32.2535 16.4619 26.6341 16.4619C21.0147 16.4619 16.4593 21.0173 16.4593 26.6367C16.4593 32.2561 21.0147 36.8115 26.6341 36.8115Z" fill="#302919"/>
<path d="M88.3921 77.5957C88.3921 77.5957 83.656 87.3671 92.5231 90.3077C101.39 93.2482 94.6895 64.2201 88.3921 77.5957Z" fill="#4C9338"/>
<path d="M111.071 77.5957C111.071 77.5957 106.335 87.3671 115.202 90.3077C124.069 93.2482 117.368 64.2201 111.071 77.5957Z" fill="#4C9338"/>
<path d="M54.2115 125.881H159.394" stroke="#302919" stroke-width="7" stroke-linecap="round" stroke-linejoin="round"/>
</svg>
