<svg width="929" height="245" viewBox="0 0 929 245" fill="none" xmlns="http://www.w3.org/2000/svg">
<path d="M928.939 125.118C928.939 125.118 760.03 378.482 562.97 125.118C562.97 125.118 731.879 -156.397 928.939 125.118Z" fill="black"/>
<path d="M796.69 125.806C796.69 172.443 791.028 209.572 744.359 209.572C697.69 209.572 687.212 172.443 687.212 125.806C687.212 79.1681 697.722 40.6631 744.359 40.6631C790.997 40.6631 796.69 79.1681 796.69 125.806Z" fill="#FFC033"/>
<path d="M770.102 119.55C777.876 119.55 784.178 113.249 784.178 105.475C784.178 97.7009 777.876 91.3989 770.102 91.3989C762.329 91.3989 756.027 97.7009 756.027 105.475C756.027 113.249 762.329 119.55 770.102 119.55Z" fill="white"/>
<path d="M928.939 125.118C760.03 12.5118 562.97 125.118 562.97 125.118C562.97 125.118 731.879 -156.397 928.939 125.118Z" fill="#4C9338"/>
<path d="M928.939 125.118C928.939 125.118 760.03 378.481 562.97 125.118C562.97 125.118 731.879 265.875 928.939 125.118Z" fill="#4C9338"/>
<path d="M741.263 96.9663C741.263 96.9663 713.111 125.118 713.111 153.269C713.111 181.421 769.414 153.269 741.263 96.9663Z" fill="black"/>
<path d="M365.97 125.118C365.97 125.118 197.061 378.482 0 125.118C0 125.118 168.909 -156.397 365.97 125.118Z" fill="black"/>
<path d="M237.724 131.374C237.724 178.012 231.187 215.829 184.549 215.829C137.911 215.829 128.246 178.012 128.246 131.374C128.246 84.7363 137.911 46.9194 184.549 46.9194C231.187 46.9194 237.724 84.7363 237.724 131.374Z" fill="#FFC033"/>
<path d="M365.97 125.118C140.758 0 0 125.118 0 125.118C0 125.118 168.909 -156.397 365.97 125.118Z" fill="#4C9338"/>
<path d="M365.97 125.118C365.97 125.118 197.061 394.121 0 125.118C0 125.118 168.909 281.515 365.97 125.118Z" fill="#4C9338"/>
<path d="M164.186 84.8608C164.186 84.8608 146.763 162.559 185.612 171.255C224.462 179.982 164.186 84.8608 164.186 84.8608Z" fill="black"/>
<path d="M207.133 119.55C214.906 119.55 221.208 113.249 221.208 105.475C221.208 97.7009 214.906 91.3989 207.133 91.3989C199.359 91.3989 193.057 97.7009 193.057 105.475C193.057 113.249 199.359 119.55 207.133 119.55Z" fill="white"/>
</svg>
