<svg width="929" height="245" viewBox="0 0 929 245" fill="none" xmlns="http://www.w3.org/2000/svg">
<path d="M929 125.118C929 125.118 760.091 378.482 563.03 125.118C563.03 125.118 731.939 -156.397 929 125.118Z" fill="black"/>
<path d="M796.751 125.806C796.751 172.443 791.089 209.572 744.42 209.572C697.751 209.572 687.272 172.443 687.272 125.806C687.272 79.1681 697.782 40.6631 744.42 40.6631C791.058 40.6631 796.751 79.1681 796.751 125.806Z" fill="#FFC033"/>
<path d="M770.163 119.55C777.936 119.55 784.238 113.249 784.238 105.475C784.238 97.7009 777.936 91.3989 770.163 91.3989C762.389 91.3989 756.087 97.7009 756.087 105.475C756.087 113.249 762.389 119.55 770.163 119.55Z" fill="white"/>
<path d="M929 125.118C755 210.5 563.03 125.118 563.03 125.118C563.03 125.118 731.939 -156.397 929 125.118Z" fill="#4C9338"/>
<path d="M929 125.118C929 125.118 760.091 378.481 563.03 125.118C563.03 125.118 731.939 265.875 929 125.118Z" fill="#4C9338"/>
<path d="M365.97 125.118C365.97 125.118 197.061 378.482 0 125.118C0 125.118 168.909 -156.397 365.97 125.118Z" fill="black"/>
<path d="M237.724 131.374C237.724 178.012 231.186 215.829 184.549 215.829C137.911 215.829 128.246 178.012 128.246 131.374C128.246 84.7363 137.911 46.9194 184.549 46.9194C231.186 46.9194 237.724 84.7363 237.724 131.374Z" fill="#FFC033"/>
<path d="M365.97 125.118C147 217 0 125.118 0 125.118C0 125.118 168.909 -156.397 365.97 125.118Z" fill="#4C9338"/>
<path d="M365.97 125.118C365.97 125.118 197.061 394.121 0 125.118C0 125.118 168.909 281.515 365.97 125.118Z" fill="#4C9338"/>
</svg>
