<svg width="547" height="381" viewBox="0 0 547 381" fill="none" xmlns="http://www.w3.org/2000/svg">
<path d="M517.886 292.769C491.858 323.343 451.567 345.281 405.7 359.574C359.841 373.865 308.451 380.5 260.28 380.5C189.285 380.5 124.321 363.449 77.1217 331.174C29.9371 298.909 0.5 251.431 0.5 190.5C0.5 171.966 9.81412 150.821 26.0836 129.497C42.3454 108.183 65.5179 86.7418 93.1402 67.6251C148.39 29.388 221.371 0.5 292.312 0.5C408.589 0.5 510.205 34.3676 542.223 122.923C544.462 129.114 545.62 135.644 545.957 142.235C547.057 163.757 546.351 187.754 545.043 208.75C543.162 238.935 537.395 269.852 517.886 292.769Z" stroke="#707F52"/>
</svg>
