<svg width="435" height="303" viewBox="0 0 435 303" fill="none" xmlns="http://www.w3.org/2000/svg">
<path d="M405.486 239.593C383.781 261.47 352.403 277.201 317.306 287.462C282.214 297.721 243.442 302.5 206.987 302.5C150.543 302.5 98.9024 288.943 61.3886 263.29C23.8894 237.647 0.5 199.919 0.5 151.5C0.5 136.793 7.89229 119.998 20.8243 103.048C33.7486 86.1079 52.168 69.0631 74.1277 53.8647C118.052 23.4644 176.07 0.5 232.461 0.5C324.077 0.5 404.19 26.9434 430.393 95.8733C432.731 102.021 433.874 108.572 434.165 115.164C434.759 128.607 434.505 143.14 433.855 156.708C432.407 186.918 426.663 218.249 405.486 239.593Z" stroke="#707F52"/>
</svg>
