<svg width="677" height="471" viewBox="0 0 677 471" fill="none" xmlns="http://www.w3.org/2000/svg">
<path d="M647.75 353.656C617.052 394.441 566.568 423.658 508.268 442.677C449.975 461.694 383.918 470.5 322.138 470.5C234.253 470.5 153.825 449.418 95.3832 409.502C36.9564 369.596 0.5 310.867 0.5 235.5C0.5 212.551 12.0447 186.386 32.188 160.016C52.3236 133.655 81.0131 107.141 115.208 83.5025C183.603 36.2229 273.952 0.5 361.784 0.5C506.663 0.5 633.223 42.9297 671.983 154.123C674.154 160.351 675.329 166.896 675.702 173.494C677.45 204.406 676.079 239.775 673.974 268.761C671.783 298.952 665.881 329.567 647.75 353.656Z" stroke="#707F52"/>
</svg>
