<svg width="42" height="39" viewBox="0 0 42 39" fill="none" xmlns="http://www.w3.org/2000/svg">
    <path d="M32.683 24.1455C32.2677 24.5507 32.0769 25.1366 32.1748 25.7089L34.0134 36.4299C34.2616 37.8734 32.7455 38.9742 31.4488 38.2921L21.8219 33.2322C21.307 32.9603 20.6924 32.9603 20.1775 33.2322L10.5506 38.2921C9.25398 38.9742 7.73786 37.8734 7.98435 36.4299L9.82295 25.7089C9.92256 25.1366 9.73178 24.5507 9.31476 24.1455L1.52648 16.5531C1.05206 16.0905 0.91192 15.4726 1.03179 14.9154C1.18037 14.2384 1.71388 13.6526 2.5074 13.5377L13.2705 11.9743C13.8462 11.8899 14.3426 11.5286 14.6009 11.0069L19.4144 1.25343C19.7858 0.500433 20.5591 0.179647 21.2749 0.291077C21.8067 0.372117 22.3082 0.692903 22.5851 1.25343L27.3985 11.0069C27.6551 11.5286 28.1532 11.8899 28.7289 11.9743L39.492 13.5377C40.9423 13.7488 41.5214 15.53 40.4713 16.5531L32.683 24.1455Z" fill="#FFC033"/>
    <path d="M21.2751 0.291077C19.8164 3.65424 15.94 12.4521 15.0367 13.0532C14.2314 13.5901 5.70698 14.468 1.03198 14.9137C1.18056 14.2384 1.71407 13.6526 2.50759 13.5377L13.2707 11.9743C13.8464 11.8899 14.3428 11.5286 14.6011 11.0069L19.4146 1.25343C19.786 0.500433 20.5593 0.179647 21.2751 0.291077Z" fill="#FFEDCA"/>
    <path d="M30.5488 4.87923C30.6755 4.36935 31.2208 4.00129 31.5298 4.2174L32.9243 5.19326L34.3189 6.16911C34.6279 6.38522 34.4692 7.02341 34.0319 7.31718L32.0616 8.6459L30.0913 9.97462C29.6557 10.2684 29.2691 9.99825 29.3974 9.48838L29.9731 7.18211L30.5488 4.87585V4.87923Z" fill="#FFEDCA"/>
    <path d="M7.72438 7.31913C7.28879 7.02536 7.13009 6.38717 7.43737 6.17107L8.83193 5.19521L10.2265 4.21935C10.5355 4.00325 11.0791 4.3713 11.2074 4.88118L11.7831 7.18744L12.3589 9.49371C12.4855 10.0036 12.1005 10.2737 11.665 9.97995L9.69467 8.65123L7.72438 7.32251V7.31913Z" fill="#FFEDCA"/>
</svg>