<svg width="237" height="215" viewBox="0 0 237 215" fill="none" xmlns="http://www.w3.org/2000/svg">
<path d="M169.069 52.5009L206.465 74.0904L226.638 39.1377C232.722 28.6072 229.111 15.1413 218.581 9.0651L212.959 5.82154C212.431 5.51333 211.888 5.24914 211.338 5.01431C204.616 2.15969 196.661 4.69876 192.911 11.1932L170.404 50.1893L169.069 52.5009Z" fill="#823326"/>
<path d="M170.404 50.1893L191.341 62.2756L211.514 27.3303C215.653 20.1681 215.308 11.6409 211.338 5.01431C204.616 2.15969 196.661 4.69876 192.911 11.1932L170.404 50.1893Z" fill="#30150D"/>
<path d="M75.6586 48.6479L38.2623 70.2374L18.0891 35.2847C12.0056 24.7541 15.6161 11.2882 26.1466 5.21207L31.7678 1.96851C32.2962 1.6603 32.8392 1.39611 33.3896 1.16128C40.1115 -1.69334 48.0663 0.845733 51.8162 7.34019L74.323 46.3363L75.6586 48.6479Z" fill="#823326"/>
<path d="M74.323 46.3363L53.3867 58.4226L33.2135 23.4773C29.0747 16.315 29.4196 7.78783 33.3896 1.16128C40.1116 -1.69334 48.0664 0.845733 51.8163 7.34019L74.323 46.3363Z" fill="#30150D"/>
<path d="M237 110.885C237 159.656 177.251 198.776 116.974 198.776C56.6962 198.776 0 159.656 0 110.885C0 95.2173 6.76597 80.4451 17.6414 67.6177C40.6105 40.5097 81.9329 22.0464 116.577 22.0464C157.335 22.0464 209.055 47.173 228.818 81.8541C234.013 90.961 237 100.736 237 110.885Z" fill="#F7EDE2"/>
<path d="M229.596 91.2179C229.596 139.989 174.976 179.11 119.88 179.11C64.7831 179.11 12.9522 139.989 12.9522 91.2179C12.9522 83.0576 14.6253 75.1468 17.6414 67.6177C21.1785 63.4495 25.1412 59.4794 29.4562 55.7515C53.1665 35.2628 87.2605 22.0464 116.577 22.0464C151.545 22.0464 194.584 40.5391 218.588 67.6984C222.558 72.1968 226.014 76.9301 228.818 81.8541C229.331 84.9289 229.596 88.055 229.596 91.2179Z" fill="#30150D"/>
<path d="M218.588 67.6984C218.61 69.3202 218.199 72.2482 216.79 78.3317C215.777 82.698 214.552 86.9983 213.121 91.2179C210.597 98.6737 207.441 105.858 203.698 112.646C186.307 144.282 156.41 167.141 120.041 167.141C85.6755 167.141 52.7555 147.364 36.435 118.348C31.621 109.806 28.2454 100.45 26.7043 90.5648C26.0806 86.5727 25.7577 82.4852 25.7577 78.3317C25.7577 70.5383 27.0712 62.9798 29.4562 55.7515C53.1665 35.2628 87.2606 22.0464 116.577 22.0464C151.545 22.0464 194.584 40.5391 218.588 67.6984Z" fill="#FF7843"/>
<path d="M36.435 118.348C31.621 109.806 28.2453 100.45 26.7043 90.5649C29.691 93.515 34.9159 99.4664 36.2222 106.137C36.9853 110.019 36.8532 114.459 36.435 118.348Z" fill="#F7EDE2"/>
<path d="M158.281 173.473C158.281 173.642 158.281 173.818 158.281 173.987C158.252 176.753 157.944 179.447 157.393 182.052C153.453 200.75 136.853 214.788 116.981 214.788C97.1086 214.788 80.4138 200.669 76.5245 181.898C75.9961 179.329 75.7026 176.673 75.6732 173.958C75.6659 173.796 75.6659 173.635 75.6659 173.473C75.6659 172.189 75.7246 170.912 75.842 169.657C76.1502 166.304 76.8547 163.06 77.9188 159.985C83.5106 143.797 98.8845 132.166 116.981 132.166C135.077 132.166 150.385 143.753 155.999 159.89C157.085 163.001 157.812 166.289 158.12 169.694C158.23 170.941 158.289 172.196 158.289 173.473H158.281Z" fill="#F7EDE2"/>
<path d="M139.701 142.066C139.084 143.336 138.152 145.207 137.007 147.416C137.007 147.416 137.007 147.423 137 147.423C136.978 147.467 136.956 147.518 136.927 147.57C131.753 157.535 122.294 174.208 116.974 174.208C111.653 174.208 102.187 157.535 97.0132 147.57C96.9912 147.518 96.9619 147.467 96.9398 147.423C96.9325 147.423 96.9325 147.416 96.9325 147.416C96.1987 145.992 95.5529 144.715 95.0172 143.644C94.8191 143.24 94.6283 142.873 94.4668 142.536C94.188 141.971 93.9605 141.501 93.7844 141.134C93.6376 140.841 93.5642 140.525 93.5642 140.202C94.9071 139.255 104.359 132.9 116.974 132.9C127.306 132.9 135.51 137.164 138.886 139.233C139.847 139.82 140.2 141.046 139.701 142.066Z" fill="#30150D"/>
<path d="M98.1434 183.123C99.8459 184.518 102.275 184.606 104.08 183.343L116.842 174.42L129.471 183.255C131.335 184.562 133.852 184.415 135.554 182.903" stroke="#30150D" stroke-width="3" stroke-linecap="round" stroke-linejoin="round"/>
<path d="M83.2905 90.7484C83.2905 93.104 82.8795 95.3569 82.1163 97.4483C79.3791 105.007 72.1362 110.408 63.631 110.408C52.7702 110.408 43.9641 101.609 43.9641 90.7484C43.9641 86.6976 45.1897 82.9257 47.2958 79.7995C50.8255 74.5379 56.821 71.0815 63.631 71.0815C74.4918 71.0815 83.2905 79.8876 83.2905 90.7484Z" fill="#F7EDE2"/>
<path d="M83.2905 90.7484C83.2905 93.104 82.8795 95.3569 82.1163 97.4483C78.5792 102.688 72.5911 106.137 65.7958 106.137C54.935 106.137 46.129 97.3382 46.129 86.4774C46.129 84.1292 46.5399 81.8836 47.2958 79.7995C50.8255 74.5379 56.821 71.0815 63.631 71.0815C74.4918 71.0815 83.2905 79.8876 83.2905 90.7484Z" fill="#30150D"/>
<path d="M188.736 90.7484C188.736 93.104 188.325 95.3569 187.561 97.4483C184.824 105.007 177.581 110.408 169.076 110.408C158.215 110.408 149.409 101.609 149.409 90.7484C149.409 86.6976 150.635 82.9257 152.741 79.7995C156.271 74.5379 162.266 71.0815 169.076 71.0815C179.937 71.0815 188.736 79.8876 188.736 90.7484Z" fill="#F7EDE2"/>
<path d="M188.736 90.7484C188.736 93.104 188.325 95.3569 187.561 97.4483C184.024 102.688 178.036 106.137 171.241 106.137C160.38 106.137 151.574 97.3382 151.574 86.4774C151.574 84.1292 151.985 81.8836 152.741 79.7995C156.271 74.5379 162.266 71.0815 169.076 71.0815C179.937 71.0815 188.736 79.8876 188.736 90.7484Z" fill="#30150D"/>
<path d="M213.121 91.2178C210.597 98.6736 207.441 105.858 203.698 112.646C203.691 110.43 203.845 108.206 204.249 106.137C205.467 99.9211 210.076 94.3366 213.121 91.2178Z" fill="#F7EDE2"/>
<path d="M188.736 121.775C188.736 121.775 165.774 119.903 158.281 129.869C158.281 129.869 159.36 114.231 170.441 112.44C181.522 110.65 188.736 121.775 188.736 121.775Z" fill="#30150D"/>
<path d="M43.9642 121.679C43.9642 121.679 66.9259 119.808 74.4184 129.773C74.4184 129.773 73.7359 114.341 62.655 112.543C51.574 110.745 43.9642 121.679 43.9642 121.679Z" fill="#30150D"/>
<path d="M40.0455 69.2394C40.0455 69.2394 62.8752 64.7043 80.7808 67.3828C80.7808 67.3828 93.0139 57.8723 83.7235 56.4633C49.7762 51.3118 40.0382 69.2394 40.0382 69.2394H40.0455Z" fill="#823326"/>
<path d="M29.192 143.217C29.192 143.217 31.7384 139.849 35.4957 144.046C42.4891 151.862 76.5172 158.547 82.4172 150.834C86.0497 146.086 85.7562 150.658 85.7562 150.658L84.2738 181.098L34.1528 156.147L29.1994 143.217H29.192Z" fill="#F7EDE2"/>
<path d="M197.094 69.2394C197.094 69.2394 174.264 64.7043 156.359 67.3828C156.359 67.3828 144.126 57.8723 153.416 56.4633C187.363 51.3118 197.101 69.2394 197.101 69.2394H197.094Z" fill="#823326"/>
<path d="M99.5597 167.141L75.8347 169.658C76.1429 166.304 76.8474 163.061 77.9115 159.986L99.5597 167.141Z" fill="#30150D"/>
<path d="M205.988 144.833C205.988 144.833 205.805 144.282 205.196 144.891C196.279 153.793 156.916 159.297 150.517 149.368C149.945 148.472 149.108 149.206 149.108 149.206L148.947 179.683L200.345 157.477L205.988 144.833Z" fill="#F7EDE2"/>
<path d="M93.5349 172.681L76.5172 181.898C75.9888 179.33 75.6953 176.673 75.6659 173.958L93.5349 172.681Z" fill="#30150D"/>
<path d="M158.113 169.694L134.057 167.14L155.992 159.89C157.078 163.001 157.804 166.289 158.113 169.694Z" fill="#30150D"/>
<path d="M158.274 173.987C158.245 176.754 157.936 179.447 157.386 182.052L140.082 172.681L158.274 173.987Z" fill="#30150D"/>
<path d="M140.156 141.133C140.031 141.39 139.884 141.705 139.701 142.065C139.084 143.334 138.152 145.206 137.007 147.414C137.007 147.414 137.007 147.422 137 147.422C136.949 147.51 136.861 147.569 136.758 147.569H97.182C97.0793 147.569 96.9912 147.51 96.9398 147.422C96.9325 147.422 96.9325 147.414 96.9325 147.414C96.1987 145.991 95.5529 144.714 95.0172 143.643C94.8191 143.246 94.6283 142.872 94.4668 142.534C94.188 141.969 93.9605 141.5 93.7844 141.133C93.6376 140.839 93.5642 140.524 93.5642 140.201C93.5642 139.959 93.6009 139.709 93.6816 139.474L94.32 137.581L110.582 89.3239L114.669 77.1863C115.411 74.9848 118.529 74.9848 119.271 77.1863L140.258 139.474C140.442 140.025 140.405 140.619 140.156 141.133Z" fill="#823326"/>
</svg>
